# xmcd CD database file
#
# Track frame offsets:
#	150
#	14148
#	27318
#	39994
#	53820
#	68059
#	82770
#	94635
#	108168
#	122406
#	137651
#	151038
#	165234
#	178924
#	192913
#	205845
#	219198
#	233063
#	248682
#	262808
#	274729
#	288098
#	302357
#
# Disc length: 4214 seconds
#
# Revision: 6
# Processed by: cddbd v1.5.2PL0 Copyright (c) Steve Scherf et al.
# Submitted via: CDex 1.50
#
DISCID=1e107417
DTITLE=Various Artist - Back to the Crossroads: The Roots of Robert Johnson
DYEAR=2004
DGENRE=Prewar Blues
TTITLE0=Peetie Wheatstraw - Police Station Blues [1932]
TTITLE1=Kokomo Arnold - Old Original Kokomo Blues [1934]
TTITLE2=Bumble Bee Slim - Cruel Hearted Woman [1934]
TTITLE3=Hambone Willie Newbern - Roll and Tumble Blues [1929]
TTITLE4=Lonnie Johnson - Life Saver Blues [1927]
TTITLE5=Mississippi Sheiks - Sitting on Top of the World [1930]
TTITLE6=Mississippi Jook Band - Hittin' the Bottle Stomp [1936]
TTITLE7=Skip James - Devil Got My Woman [1931]
TTITLE8=Son House - My Black Mama, pt. 1 [1930]
TTITLE9=Blind Blake - Georgia Bound [1929]
TTITLE10=Leroy Carr - When the Sun Goes Down [1935]
TTITLE11=Kokomo Arnold - Sissy Man Blues [1935]
TTITLE12=Rev. E.W. Clayborn - Your Enemy Cannot Harm You [1926]
TTITLE13=Johnny Temple - Lead Pencil Blues [1935]
TTITLE14=Skip James - 22-20 Blues [1931]
TTITLE15=Blind Lemon Jefferson - Dry Southern Blues [1926]
TTITLE16=Scrapper Blackwell - Kokomo Blues [1928]
TTITLE17=Tampa Red - Things 'Bout Coming My Way [1931]
TTITLE18=Peetie Wheatstraw - King of Spades [1935]
TTITLE19=Harlem Hamfats - Oh Red [1936]
TTITLE20=Charley Patton - You're Gonna Need Somebody When You Die [1929]
TTITLE21=Kokomo Arnold - Milk Cow Blues [1934]
TTITLE22=Son House - Preachin' the Blues [1930]
EXTD=Produced by Elijah Wald.\nRemastered by Richard Nevins - digital mastering by Robert Vosgien at Capitol Mastering.\nCD: Yazoo 2070 (2004-01-20), UPC 016351207029. YEAR: 2004
EXTT0=
EXTT1=
EXTT2=
EXTT3=(Billy Newbern]\nRecorded Atlanta US-GA, 1929-03-31 (mx 402306=B) - OKeh 8679.\n"Hambone" Willie Newbern (1899/c.1947): vocal, guitar
EXTT4=
EXTT5=
EXTT6=Blind Roosevelt Graves: guitar, vocal\nCooney Vaughn: piano\nUaroy Graves: tambourine
EXTT7=
EXTT8=
EXTT9=
EXTT10=
EXTT11=(Kokomo Arnold]\nRecorded 1935-01-15 (mx C9654) - Decca 7050.\nJames "Kokomo" Arnold (1901/1968): guitar, vocal
EXTT12=
EXTT13=Johnny "Geechie" Temple: guitar, vocal\nCharlie McCoy: lead guitar
EXTT14=
EXTT15=
EXTT16=
EXTT17=Tampa Red [Hudson Whittaker]: guitar, vocal\nGeorgia Tom Dorsey: piano
EXTT18=
EXTT19=Kansas Joe McCoy: guitar, vocal\nCharlie McCoy: mandolin\nHerb Morand: trumpet\nOdell Rand: clarinet
EXTT20=
EXTT21=
EXTT22=
PLAYORDER=
